# xmcd CD database file
#
# Track frame offsets:
#	150
#	17356
#	41337
#	60299
#	90745
#	106993
#	122871
#	138529
#	155629
#	171954
#	189062
#	202724
#	228848
#	242502
#	263051
#	280234
#	295552
#	313667
#	333542
#
# Disc length: 4668 seconds
#
# Revision: 0
# Processed by: cddbd v1.5.2PL0 Copyright (c) Steve Scherf et al.
# Submitted via: CDex 1.51
#
DISCID=f6123a13
DTITLE=varios - Tropical Mambo 2009
DYEAR=2009
DGENRE=Salsa
TTITLE0=Intro:Presumida - Tulile
TTITLE1=Te quiero - Jay pajano
TTITLE2=Con Cotorra No - el sujeto
TTITLE3=Maltrato - Omega
TTITLE4=Allorar a otra parte - Aury y Corona kings
TTITLE5=La vieja - El swing de frankie
TTITLE6=Tu ta ratata - Jucafri
TTITLE7=La cazadora - El ferry
TTITLE8=El chupon Remix - Omar la Chelcha
TTITLE9=Toy desacato - Lluvia negra
TTITLE10=Una vaina bien - Felix abreu el feo
TTITLE11=Sueltate - Codigo 1
TTITLE12=Mambo de gangster - Eury Silencio
TTITLE13=El Flow - Papeleta y Unic Mambo
TTITLE14=Helado - Raul el LoKo
TTITLE15=No te cruze palomo - El conde Marc Laury
TTITLE16=Tu sabes que no - Pochy, Kinito y Bobby
TTITLE17=Ya maldito loco - El Welling
TTITLE18=La Mano - Picoro
EXTD=YEAR: 2009
EXTT0=
EXTT1=
EXTT2=
EXTT3=
EXTT4=
EXTT5=
EXTT6=
EXTT7=
EXTT8=
EXTT9=
EXTT10=
EXTT11=
EXTT12=
EXTT13=
EXTT14=
EXTT15=
EXTT16=
EXTT17=
EXTT18=
PLAYORDER=
